<svg width="349" height="244" viewBox="0 0 349 244" fill="none" xmlns="http://www.w3.org/2000/svg">
<path d="M1.70699 59.704C3.85317 59.4257 5.79402 59.1325 7.52952 58.8244C9.20193 58.5325 10.6535 58.2968 11.8844 58.1174C13.3044 57.8898 14.5587 57.6708 15.6473 57.4605C16.7829 57.171 18.2258 56.7696 19.9761 56.2562C21.4741 55.8072 23.3742 55.222 25.6762 54.5008C27.9782 53.7796 30.7924 52.8271 34.1187 51.6432C32.7196 53.0076 31.6045 54.2997 30.7733 55.5194C30.0051 56.723 29.4336 57.7757 29.0588 58.6775C28.59 59.7376 28.3105 60.7495 28.2202 61.7131C28.3365 62.96 28.9946 65.2781 30.1946 68.6674C30.6906 70.0863 31.3382 71.836 32.1374 73.9166C32.9835 75.9181 33.9973 78.3135 35.1787 81.1029C36.4071 83.8131 37.8426 86.9409 39.4854 90.4861C41.1913 94.0152 43.1205 98.0249 45.273 102.515C45.618 98.5976 45.8468 95.1463 45.9593 92.1615C46.0557 89.1135 46.1305 86.5078 46.1837 84.3442C46.2356 81.9123 46.2572 79.7568 46.2485 77.8778C46.2237 75.9358 46.1569 73.4333 46.048 70.3705C45.9255 67.7815 45.7757 64.4267 45.5988 60.3063C45.4218 56.1859 45.2009 51.1024 44.9361 45.056L48.4634 44.6607C49.9206 49.0594 51.2412 52.9219 52.4251 56.2482C53.672 59.5584 54.7272 62.38 55.5907 64.7129C56.5507 67.4244 57.4141 69.7574 58.1811 71.7118C58.8998 73.477 59.8171 75.4939 60.9329 77.7625C61.8891 79.6687 63.0922 82.0159 64.542 84.8041C65.9757 87.5292 67.7267 90.5765 69.795 93.946C69.7888 89.1774 69.7769 84.9141 69.7596 81.1561C69.8053 77.382 69.7978 74.0582 69.7371 71.1846C69.7395 68.295 69.7123 65.8161 69.6553 63.7478C69.6615 61.6635 69.6534 59.9187 69.6311 58.5135C69.521 55.1822 69.3923 52.9643 69.2451 51.8597C68.8764 50.6771 68.295 49.5824 67.5008 48.5755C66.8019 47.6787 65.8265 46.7515 64.5747 45.7941C63.3228 44.8367 61.6374 44.0234 59.5184 43.3542C63.3989 42.4994 66.5458 41.798 68.9591 41.2499C71.4195 40.6227 73.3752 40.1242 74.8262 39.7543L78.6114 38.7894L82.0181 37.9209C83.2798 37.5993 84.92 37.1812 86.9388 36.6665C89.0046 36.0727 91.6301 35.3027 94.8154 34.3563C92.4094 36.5149 90.5076 38.4106 89.1098 40.0435C87.712 41.6764 86.6445 43.0235 85.9073 44.0848C85.029 45.3837 84.426 46.4444 84.0982 47.267C83.9152 48.6574 83.8188 51.7054 83.8089 56.4109C83.7867 58.4322 83.822 60.9427 83.9148 63.9424C83.9916 66.879 84.0869 70.4156 84.2008 74.5521C84.3777 78.6726 84.5974 83.4876 84.8597 88.9971C85.106 94.4436 85.4191 100.679 85.7989 107.704L68.9938 110.174L54.4888 82.5294C54.7834 88.1652 55.0413 92.7353 55.2628 96.2397C55.4682 99.681 55.6464 102.357 55.7974 104.267C55.9817 106.571 56.171 108.236 56.3652 109.262C56.5273 110.161 56.6813 111.029 56.8273 111.865C56.9411 112.575 57.0395 113.356 57.1224 114.208C57.2683 115.044 57.3667 115.826 57.4174 116.552L40.6679 120.822C37.1943 114.048 34.0955 108.086 31.3716 102.935C28.6946 97.7048 26.3207 93.1366 24.2499 89.2302C22.1791 85.3238 20.3953 82.0161 18.8985 79.3071C17.4648 76.582 16.2148 74.314 15.1484 72.503C12.7288 68.2824 11.0984 65.7083 10.2572 64.7805C9.68694 64.3884 8.96638 63.9338 8.09553 63.4168C7.38301 62.9937 6.51215 62.4767 5.48296 61.8656C4.3746 61.2076 3.11594 60.487 1.70699 59.704ZM91.1568 62.7009L108.617 58.4515C108.589 62.5571 108.668 66.0306 108.855 68.872C109.105 71.6973 109.4 74.0408 109.74 75.9025C110.018 78.0487 110.405 79.8312 110.901 81.25C111.428 82.5266 112.106 83.8656 112.933 85.2671C113.633 86.4323 114.571 87.7386 115.746 89.1859C116.922 90.6331 118.349 92.0161 120.029 93.3347C119.208 93.2753 118.339 93.2951 117.424 93.3941C116.508 93.4931 115.664 93.6075 114.891 93.7374C113.992 93.8995 113.109 94.1246 112.241 94.4129C111.374 94.7011 110.421 95.045 109.38 95.4446C108.529 95.7959 107.497 96.227 106.283 96.7379C105.07 97.2488 103.809 97.8389 102.502 98.5081C102.725 95.428 102.823 92.7827 102.797 90.5721C102.834 88.3455 102.802 86.5061 102.7 85.0539C102.534 83.3493 102.354 81.9843 102.16 80.9588C101.839 79.6971 101.477 78.2776 101.075 76.7005C100.657 75.0602 100.255 73.4831 99.8685 71.969C99.4826 70.4549 99.1133 69.1381 98.7607 68.0187C98.3921 66.8361 98.0729 66.1112 97.8033 65.844L96.6157 65.139C96.1568 64.92 95.4765 64.6232 94.5747 64.2484C93.7199 63.7944 92.5806 63.2786 91.1568 62.7009ZM94.1606 46.4152C95.3085 45.3835 96.5851 44.8565 97.9903 44.8342C99.4586 44.7959 100.684 45.1218 101.666 45.812C102.648 46.5022 103.166 47.4788 103.219 48.7418C103.335 49.9887 102.624 51.4131 101.084 53.0151C99.5274 54.5539 98.0152 55.3425 96.5469 55.3809C95.0786 55.4193 93.9319 55.0061 93.1068 54.1415C92.2817 53.2769 91.8896 52.1339 91.9304 50.7126C91.9551 49.2282 92.6985 47.7957 94.1606 46.4152ZM110.211 44.5409C113.177 44.0534 115.78 43.5914 118.02 43.1547C120.308 42.6388 122.224 42.251 123.771 41.9912C125.569 41.667 127.139 41.3677 128.48 41.093C129.884 40.8023 131.65 40.352 133.779 39.7421C135.609 39.2757 137.935 38.6492 140.758 37.8624C143.627 36.9964 147.112 35.9066 151.211 34.5928L153.807 47.9393C152.444 50.2352 151.238 52.3567 150.189 54.3038C149.203 56.2347 148.319 57.9047 147.536 59.3137C146.675 60.944 145.908 62.4161 145.235 63.7298C144.578 65.1066 143.852 66.7363 143.055 68.6191C142.337 70.2804 141.477 72.3134 140.478 74.7181C139.462 77.0598 138.315 79.8047 137.034 82.9529C140.456 81.8791 143.247 80.9661 145.406 80.214C147.55 79.3988 149.229 78.7357 150.442 78.2248C151.892 77.5865 152.948 77.1158 153.609 76.8127C154.176 76.3996 154.765 75.6784 155.376 74.6492C155.893 73.7783 156.479 72.5203 157.135 70.8751C157.79 69.2299 158.443 67.0478 159.094 64.3289C159.593 66.2845 160.019 67.9563 160.373 69.3442C160.773 70.653 161.086 71.749 161.311 72.6322L161.963 75.1872L162.518 77.3637C162.695 78.0576 162.912 78.9093 163.169 79.9187C163.489 80.912 163.842 82.0314 164.227 83.2771C161.686 83.5889 159.39 83.939 157.339 84.3274C155.272 84.6528 153.505 84.9689 152.038 85.2757C150.319 85.6468 148.773 86.0408 147.401 86.4577C146.045 86.9377 144.343 87.5061 142.293 88.163C140.559 88.7395 138.414 89.4205 135.86 90.206C133.306 90.9916 130.286 91.9293 126.801 93.0191L122.163 83.5191C123.169 82.7249 124.277 81.4013 125.484 79.5482C126.691 77.6952 127.827 75.8267 128.892 73.9427C130.082 71.7582 131.327 69.3918 132.625 66.8435C133.861 64.3114 135.065 61.7873 136.238 59.2712C137.239 57.1349 138.286 54.9194 139.381 52.6247C140.539 50.314 141.532 48.2804 142.361 46.5238C138.986 47.5184 136.243 48.4864 134.132 49.4278C132.004 50.3061 130.35 51.0638 129.168 51.7009C127.751 52.4654 126.728 53.1965 126.099 53.8941C125.55 54.6388 124.916 55.7076 124.196 57.1005C123.554 58.2719 122.811 59.8386 121.967 61.8005C121.108 63.6993 120.179 66.1195 119.182 69.0611C118.652 66.9792 118.146 65.1262 117.664 63.502C117.167 61.8148 116.742 60.4114 116.39 59.2919C115.926 57.9993 115.534 56.8563 115.213 55.863C114.83 54.8858 114.391 53.822 113.896 52.6716C113.496 51.6313 112.962 50.4574 112.293 49.1499C111.67 47.7632 110.976 46.2269 110.211 44.5409Z" fill="#FFA800"/>
<path d="M139.488 112.457C142.483 112.717 145.12 112.913 147.398 113.043C149.742 113.108 151.695 113.206 153.258 113.336C155.081 113.466 156.676 113.564 158.043 113.629C159.475 113.694 161.298 113.694 163.512 113.629C165.4 113.629 167.809 113.596 170.738 113.531C173.733 113.401 177.379 113.206 181.676 112.945L180.895 126.52C179.007 128.408 177.314 130.165 175.816 131.793C174.384 133.421 173.115 134.82 172.008 135.992C170.771 137.359 169.664 138.596 168.688 139.703C167.711 140.875 166.604 142.275 165.367 143.902C164.26 145.335 162.926 147.092 161.363 149.176C159.801 151.194 158.01 153.57 155.992 156.305C159.573 156.109 162.503 155.914 164.781 155.719C167.06 155.458 168.85 155.23 170.152 155.035C171.715 154.775 172.854 154.579 173.57 154.449C174.221 154.189 174.97 153.635 175.816 152.789C176.533 152.073 177.411 150.999 178.453 149.566C179.495 148.134 180.667 146.181 181.969 143.707C181.969 145.725 181.969 147.451 181.969 148.883C182.034 150.25 182.066 151.389 182.066 152.301V154.938V157.184C182.066 157.9 182.066 158.779 182.066 159.82C182.132 160.862 182.197 162.034 182.262 163.336C179.723 163.01 177.411 162.783 175.328 162.652C173.245 162.457 171.454 162.327 169.957 162.262C168.199 162.197 166.604 162.197 165.172 162.262C163.74 162.392 161.949 162.522 159.801 162.652C157.978 162.783 155.732 162.913 153.062 163.043C150.393 163.173 147.236 163.336 143.59 163.531L141.441 153.18C142.613 152.659 144.013 151.65 145.641 150.152C147.268 148.655 148.831 147.125 150.328 145.562C152.021 143.74 153.811 141.754 155.699 139.605C157.522 137.457 159.312 135.309 161.07 133.16C162.568 131.337 164.13 129.449 165.758 127.496C167.451 125.543 168.915 123.818 170.152 122.32C166.637 122.451 163.74 122.711 161.461 123.102C159.182 123.427 157.392 123.753 156.09 124.078C154.527 124.469 153.355 124.924 152.574 125.445C151.858 126.031 150.979 126.91 149.938 128.082C149.026 129.059 147.919 130.393 146.617 132.086C145.315 133.714 143.818 135.829 142.125 138.434C142.125 136.285 142.092 134.365 142.027 132.672C141.962 130.914 141.897 129.449 141.832 128.277C141.702 126.91 141.604 125.706 141.539 124.664C141.409 123.622 141.246 122.483 141.051 121.246C140.921 120.139 140.693 118.87 140.367 117.438C140.107 115.94 139.814 114.28 139.488 112.457ZM193.004 129.449C193.329 129.059 193.525 128.342 193.59 127.301C193.72 126.194 193.98 124.957 194.371 123.59C194.827 122.223 195.576 120.79 196.617 119.293C197.659 117.796 199.352 116.396 201.695 115.094C203.974 113.792 206.188 113.01 208.336 112.75C210.484 112.49 212.535 112.587 214.488 113.043C216.441 113.499 218.264 114.215 219.957 115.191C221.715 116.168 223.31 117.242 224.742 118.414C225.719 119.195 226.5 120.335 227.086 121.832C227.672 123.264 228.128 124.892 228.453 126.715C228.779 128.538 229.007 130.458 229.137 132.477C229.332 134.43 229.462 136.35 229.527 138.238C229.592 140.061 229.625 141.754 229.625 143.316C229.69 144.814 229.82 146.051 230.016 147.027C230.276 148.46 230.732 149.697 231.383 150.738C232.034 151.715 232.75 152.561 233.531 153.277C234.312 153.928 235.094 154.449 235.875 154.84C236.656 155.23 237.34 155.523 237.926 155.719C238.316 155.914 238.674 156.044 239 156.109C239.651 156.37 240.107 156.37 240.367 156.109C239.977 157.021 239.618 157.802 239.293 158.453C238.967 159.104 238.707 159.658 238.512 160.113C238.251 160.634 238.023 161.057 237.828 161.383C237.633 161.773 237.405 162.132 237.145 162.457C236.949 162.783 236.689 163.141 236.363 163.531C236.038 163.922 235.712 164.345 235.387 164.801C234.54 164.475 233.727 164.085 232.945 163.629C232.229 163.173 231.578 162.75 230.992 162.359C230.276 161.904 229.625 161.448 229.039 160.992C228.453 160.536 227.9 160.016 227.379 159.43C226.923 158.909 226.435 158.355 225.914 157.77C225.458 157.184 225.068 156.533 224.742 155.816C224.352 156.663 223.408 157.867 221.91 159.43C220.478 160.992 218.59 162.424 216.246 163.727C213.902 164.964 211.168 165.842 208.043 166.363C204.983 166.884 201.598 166.526 197.887 165.289C196.259 164.768 194.729 164.02 193.297 163.043C191.865 162.001 190.628 160.764 189.586 159.332C188.609 157.9 187.893 156.272 187.438 154.449C187.047 152.561 187.079 150.478 187.535 148.199C187.991 145.921 188.805 144 189.977 142.438C191.148 140.875 192.548 139.605 194.176 138.629C195.803 137.652 197.626 136.904 199.645 136.383C201.663 135.862 203.746 135.504 205.895 135.309C207.587 135.243 209.28 135.341 210.973 135.602C212.405 135.862 213.902 136.35 215.465 137.066C217.027 137.717 218.362 138.727 219.469 140.094C219.404 136.643 219.273 133.909 219.078 131.891C218.948 129.807 218.818 128.212 218.688 127.105C218.427 125.803 218.199 124.892 218.004 124.371C217.678 123.915 217.32 123.395 216.93 122.809C216.604 122.223 216.181 121.702 215.66 121.246C215.139 120.725 214.488 120.302 213.707 119.977C212.926 119.651 212.014 119.521 210.973 119.586C209.866 119.651 208.987 119.944 208.336 120.465C207.685 120.986 207.164 121.604 206.773 122.32C206.448 122.971 206.253 123.688 206.188 124.469C206.122 125.25 206.155 125.934 206.285 126.52C206.415 126.91 206.611 127.333 206.871 127.789C207.132 128.18 207.49 128.603 207.945 129.059C208.401 129.514 209.02 129.905 209.801 130.23C208.303 130.426 206.969 130.589 205.797 130.719C204.625 130.784 203.616 130.882 202.77 131.012C201.793 131.142 200.947 131.24 200.23 131.305C199.514 131.37 198.668 131.5 197.691 131.695C196.845 131.826 195.803 131.988 194.566 132.184C193.329 132.379 191.897 132.639 190.27 132.965C190.66 132.509 191.018 132.086 191.344 131.695C191.669 131.24 191.962 130.849 192.223 130.523C192.483 130.133 192.743 129.775 193.004 129.449ZM207.652 141.07C206.48 141.135 205.309 141.428 204.137 141.949C202.965 142.405 201.923 143.089 201.012 144C200.1 144.846 199.319 145.855 198.668 147.027C198.082 148.134 197.789 149.371 197.789 150.738C197.789 152.105 198.115 153.31 198.766 154.352C199.482 155.328 200.393 156.142 201.5 156.793C202.672 157.444 203.909 157.835 205.211 157.965C206.578 158.095 207.913 157.965 209.215 157.574C210.452 157.118 211.624 156.402 212.73 155.426C213.837 154.384 214.781 153.277 215.562 152.105C216.344 150.868 216.897 149.664 217.223 148.492C217.548 147.255 217.581 146.246 217.32 145.465C216.799 143.772 215.628 142.6 213.805 141.949C211.982 141.233 209.931 140.94 207.652 141.07ZM238.414 122.223C239.651 122.288 240.758 122.32 241.734 122.32C242.776 122.255 243.655 122.19 244.371 122.125C245.217 122.06 245.966 121.995 246.617 121.93C247.594 121.799 248.603 121.637 249.645 121.441C250.556 121.311 251.5 121.148 252.477 120.953C253.518 120.693 254.527 120.4 255.504 120.074C255.113 121.051 254.788 121.897 254.527 122.613C254.267 123.329 254.072 123.948 253.941 124.469C253.746 125.055 253.648 125.543 253.648 125.934C253.583 126.389 253.551 126.943 253.551 127.594C253.486 128.701 253.486 130.491 253.551 132.965C256.936 130.035 259.768 127.757 262.047 126.129C264.391 124.501 266.246 123.232 267.613 122.32C269.241 121.279 270.51 120.595 271.422 120.27C273.831 119.879 275.947 120.432 277.77 121.93C278.551 122.581 279.299 123.46 280.016 124.566C280.732 125.608 281.35 127.008 281.871 128.766C282.392 130.523 282.783 132.639 283.043 135.113C283.303 137.522 283.336 140.419 283.141 143.805C281.773 143.935 280.536 144.065 279.43 144.195C278.388 144.326 277.509 144.423 276.793 144.488C275.947 144.618 275.165 144.684 274.449 144.684L271.812 144.977C270.901 145.107 269.762 145.237 268.395 145.367C267.092 145.432 265.497 145.562 263.609 145.758C266.344 143.544 268.102 141.624 268.883 139.996C269.729 138.303 270.087 136.904 269.957 135.797C269.827 134.56 269.241 133.486 268.199 132.574C266.962 131.858 265.628 131.598 264.195 131.793C262.958 131.923 261.526 132.477 259.898 133.453C258.271 134.43 256.546 136.253 254.723 138.922C254.853 143.089 254.983 146.539 255.113 149.273C255.309 152.008 255.471 154.221 255.602 155.914C255.797 157.867 255.96 159.397 256.09 160.504C256.285 161.48 256.676 162.522 257.262 163.629C257.717 164.54 258.368 165.549 259.215 166.656C260.061 167.763 261.168 168.87 262.535 169.977C259.671 169.846 257.327 169.846 255.504 169.977C254.397 170.042 253.421 170.107 252.574 170.172C251.663 170.302 250.686 170.432 249.645 170.562C248.733 170.693 247.659 170.823 246.422 170.953C245.25 171.148 243.948 171.344 242.516 171.539C243.036 170.823 243.46 169.977 243.785 169C244.111 168.089 244.371 167.21 244.566 166.363C244.827 165.387 245.022 164.378 245.152 163.336C245.217 162.424 245.25 161.057 245.25 159.234C245.315 157.411 245.283 155.361 245.152 153.082C245.087 150.738 244.99 148.329 244.859 145.855C244.729 143.316 244.566 140.94 244.371 138.727C244.176 136.513 243.948 134.592 243.688 132.965C243.492 131.272 243.264 130.1 243.004 129.449C242.678 128.668 242.288 127.887 241.832 127.105C241.441 126.389 240.953 125.641 240.367 124.859C239.781 124.013 239.13 123.134 238.414 122.223ZM335.191 94.1953C336.428 94.2604 337.763 94.293 339.195 94.293C340.432 94.293 341.832 94.3255 343.395 94.3906C345.022 94.3906 346.715 94.3255 348.473 94.1953C346.91 94.9115 345.543 95.9531 344.371 97.3203C343.199 98.6875 342.255 100.055 341.539 101.422C340.628 103.049 339.879 104.742 339.293 106.5C338.967 107.542 338.707 109.397 338.512 112.066C338.316 114.671 338.154 117.73 338.023 121.246C337.958 124.762 337.926 128.473 337.926 132.379C337.926 136.285 337.958 140.029 338.023 143.609C338.089 147.125 338.186 150.25 338.316 152.984C338.447 155.719 338.609 157.639 338.805 158.746C339.065 160.048 339.391 161.285 339.781 162.457C340.107 163.499 340.53 164.573 341.051 165.68C341.572 166.721 342.223 167.568 343.004 168.219L333.043 172.711C332.522 171.995 332.099 171.246 331.773 170.465C331.448 169.749 331.188 169.098 330.992 168.512C330.732 167.796 330.569 167.145 330.504 166.559C330.374 165.777 330.243 164.931 330.113 164.02C329.983 163.043 329.82 162.132 329.625 161.285C329.495 160.374 329.397 159.625 329.332 159.039C329.267 158.453 329.267 158.095 329.332 157.965C329.397 157.835 329.007 158.421 328.16 159.723C327.314 160.96 326.044 162.424 324.352 164.117C322.724 165.745 320.706 167.34 318.297 168.902C315.888 170.4 313.186 171.344 310.191 171.734C307.132 172.125 304.299 171.539 301.695 169.977C299.156 168.414 296.975 166.233 295.152 163.434C293.329 160.569 291.93 157.281 290.953 153.57C290.042 149.794 289.684 145.953 289.879 142.047C290.009 139.443 290.595 137.132 291.637 135.113C292.678 133.03 293.98 131.24 295.543 129.742C297.171 128.18 298.928 126.878 300.816 125.836C302.77 124.729 304.658 123.818 306.48 123.102C308.368 122.385 310.126 121.865 311.754 121.539C313.382 121.214 314.684 120.986 315.66 120.855C316.832 120.79 318.167 120.986 319.664 121.441C320.966 121.832 322.464 122.483 324.156 123.395C325.914 124.306 327.867 125.673 330.016 127.496C329.625 120.986 329.267 115.777 328.941 111.871C328.616 107.9 328.29 104.872 327.965 102.789C327.639 100.315 327.346 98.6224 327.086 97.7109C326.76 97.0599 326.337 96.4089 325.816 95.7578C325.361 95.237 324.775 94.7161 324.059 94.1953C323.408 93.6094 322.626 93.1536 321.715 92.8281C323.408 93.1536 325.035 93.3815 326.598 93.5117C328.16 93.6419 329.592 93.7721 330.895 93.9023C332.392 94.0326 333.824 94.1302 335.191 94.1953ZM310.68 130.621C309.443 131.077 308.434 131.858 307.652 132.965C306.936 134.072 306.35 135.406 305.895 136.969C305.439 138.466 305.113 140.094 304.918 141.852C304.788 143.544 304.69 145.204 304.625 146.832C304.625 148.395 304.625 149.827 304.625 151.129C304.625 152.431 304.625 153.408 304.625 154.059C304.625 154.449 304.69 155.165 304.82 156.207C305.016 157.184 305.406 158.225 305.992 159.332C306.578 160.374 307.392 161.318 308.434 162.164C309.54 163.01 311.005 163.434 312.828 163.434C314.326 163.303 315.921 162.783 317.613 161.871C319.111 161.09 320.803 159.853 322.691 158.16C324.645 156.402 326.728 153.896 328.941 150.641C328.811 148.557 328.714 146.832 328.648 145.465C328.648 144.098 328.616 142.991 328.551 142.145C328.486 141.168 328.453 140.387 328.453 139.801V138.336C328.453 137.945 328.453 137.522 328.453 137.066C328.453 136.611 328.486 136.188 328.551 135.797C326.728 134.495 325.1 133.388 323.668 132.477C322.301 131.5 320.934 130.784 319.566 130.328C318.264 129.807 316.897 129.579 315.465 129.645C314.098 129.645 312.503 129.97 310.68 130.621Z" fill="#FFA800"/>
<path d="M262.58 44.11C263.82 44.11 264.91 44.36 265.85 44.86C266.79 45.34 267.53 45.97 268.07 46.75V44.38H272.3V61.12C272.3 62.66 271.99 64.03 271.37 65.23C270.75 66.45 269.82 67.41 268.58 68.11C267.34 68.83 265.84 69.19 264.08 69.19C261.72 69.19 259.78 68.64 258.26 67.54C256.76 66.44 255.91 64.94 255.71 63.04H259.88C260.1 63.8 260.57 64.4 261.29 64.84C262.03 65.3 262.92 65.53 263.96 65.53C265.18 65.53 266.17 65.16 266.93 64.42C267.69 63.7 268.07 62.6 268.07 61.12V58.54C267.53 59.32 266.78 59.97 265.82 60.49C264.88 61.01 263.8 61.27 262.58 61.27C261.18 61.27 259.9 60.91 258.74 60.19C257.58 59.47 256.66 58.46 255.98 57.16C255.32 55.84 254.99 54.33 254.99 52.63C254.99 50.95 255.32 49.46 255.98 48.16C256.66 46.86 257.57 45.86 258.71 45.16C259.87 44.46 261.16 44.11 262.58 44.11ZM268.07 52.69C268.07 51.67 267.87 50.8 267.47 50.08C267.07 49.34 266.53 48.78 265.85 48.4C265.17 48 264.44 47.8 263.66 47.8C262.88 47.8 262.16 47.99 261.5 48.37C260.84 48.75 260.3 49.31 259.88 50.05C259.48 50.77 259.28 51.63 259.28 52.63C259.28 53.63 259.48 54.51 259.88 55.27C260.3 56.01 260.84 56.58 261.5 56.98C262.18 57.38 262.9 57.58 263.66 57.58C264.44 57.58 265.17 57.39 265.85 57.01C266.53 56.61 267.07 56.05 267.47 55.33C267.87 54.59 268.07 53.71 268.07 52.69ZM275.322 52.63C275.322 50.95 275.652 49.46 276.312 48.16C276.992 46.86 277.902 45.86 279.042 45.16C280.202 44.46 281.492 44.11 282.912 44.11C284.152 44.11 285.232 44.36 286.152 44.86C287.092 45.36 287.842 45.99 288.402 46.75V44.38H292.632V61H288.402V58.57C287.862 59.35 287.112 60 286.152 60.52C285.212 61.02 284.122 61.27 282.882 61.27C281.482 61.27 280.202 60.91 279.042 60.19C277.902 59.47 276.992 58.46 276.312 57.16C275.652 55.84 275.322 54.33 275.322 52.63ZM288.402 52.69C288.402 51.67 288.202 50.8 287.802 50.08C287.402 49.34 286.862 48.78 286.182 48.4C285.502 48 284.772 47.8 283.992 47.8C283.212 47.8 282.492 47.99 281.832 48.37C281.172 48.75 280.632 49.31 280.212 50.05C279.812 50.77 279.612 51.63 279.612 52.63C279.612 53.63 279.812 54.51 280.212 55.27C280.632 56.01 281.172 56.58 281.832 56.98C282.512 57.38 283.232 57.58 283.992 57.58C284.772 57.58 285.502 57.39 286.182 57.01C286.862 56.61 287.402 56.05 287.802 55.33C288.202 54.59 288.402 53.71 288.402 52.69ZM317.374 44.14C319.414 44.14 321.054 44.77 322.294 46.03C323.554 47.27 324.184 49.01 324.184 51.25V61H319.984V51.82C319.984 50.52 319.654 49.53 318.994 48.85C318.334 48.15 317.434 47.8 316.294 47.8C315.154 47.8 314.244 48.15 313.564 48.85C312.904 49.53 312.574 50.52 312.574 51.82V61H308.374V51.82C308.374 50.52 308.044 49.53 307.384 48.85C306.724 48.15 305.824 47.8 304.684 47.8C303.524 47.8 302.604 48.15 301.924 48.85C301.264 49.53 300.934 50.52 300.934 51.82V61H296.734V44.38H300.934V46.39C301.474 45.69 302.164 45.14 303.004 44.74C303.864 44.34 304.804 44.14 305.824 44.14C307.124 44.14 308.284 44.42 309.304 44.98C310.324 45.52 311.114 46.3 311.674 47.32C312.214 46.36 312.994 45.59 314.014 45.01C315.054 44.43 316.174 44.14 317.374 44.14ZM343.62 52.33C343.62 52.93 343.58 53.47 343.5 53.95H331.35C331.45 55.15 331.87 56.09 332.61 56.77C333.35 57.45 334.26 57.79 335.34 57.79C336.9 57.79 338.01 57.12 338.67 55.78H343.2C342.72 57.38 341.8 58.7 340.44 59.74C339.08 60.76 337.41 61.27 335.43 61.27C333.83 61.27 332.39 60.92 331.11 60.22C329.85 59.5 328.86 58.49 328.14 57.19C327.44 55.89 327.09 54.39 327.09 52.69C327.09 50.97 327.44 49.46 328.14 48.16C328.84 46.86 329.82 45.86 331.08 45.16C332.34 44.46 333.79 44.11 335.43 44.11C337.01 44.11 338.42 44.45 339.66 45.13C340.92 45.81 341.89 46.78 342.57 48.04C343.27 49.28 343.62 50.71 343.62 52.33ZM339.27 51.13C339.25 50.05 338.86 49.19 338.1 48.55C337.34 47.89 336.41 47.56 335.31 47.56C334.27 47.56 333.39 47.88 332.67 48.52C331.97 49.14 331.54 50.01 331.38 51.13H339.27Z" fill="white"/>
<path fill-rule="evenodd" clip-rule="evenodd" d="M115.059 112.218C115.051 115.939 112.931 118.741 109.735 119.254C107.525 119.609 107.525 120.114 109.735 120.469C112.931 120.983 115.051 123.785 115.059 127.505C115.06 128.175 115.26 128.723 115.503 128.723C115.745 128.723 115.945 128.175 115.946 127.505C115.954 123.785 118.074 120.983 121.27 120.469C122.222 120.317 123 120.043 123 119.862C123 119.68 122.222 119.407 121.27 119.254C118.074 118.741 115.954 115.939 115.946 112.218C115.945 111.548 115.745 111 115.503 111C115.26 111 115.06 111.548 115.059 112.218ZM99.0589 115.135C98.8856 115.581 98.7436 116.493 98.7436 117.161C98.7436 119.849 97.2737 126.883 96.2055 129.305C94.2244 133.798 90.8858 135.791 82.9663 137.207L80 137.737L84.158 138.568C89.6977 139.676 92.2385 140.837 94.317 143.21C96.5027 145.705 97.267 147.965 98.3158 155.038C99.1762 160.844 99.6234 162.433 99.6283 159.702C99.6296 158.869 99.9176 156.278 100.268 153.944C101.855 143.368 104.469 140.595 114.841 138.479L118.369 137.759L114.4 136.979C103.929 134.919 101.474 131.833 99.9057 118.754C99.5793 116.029 99.253 114.635 99.0589 115.135Z" fill="#E9E9E9"/>
</svg>
